<!--?xml version="1.0" standalone="no"?-->
              <svg id="sw-js-blob-svg" viewBox="0 0 100 100" xmlns="http://www.w3.org/2000/svg" version="1.1">
                    <defs> 
                        <linearGradient id="sw-gradient" x1="0" x2="1" y1="1" y2="0">
                            <stop id="stop1" stop-color="rgba(146.848, 99.756, 198.578, 1)" offset="0%"></stop>
                            <stop id="stop2" stop-color="rgba(211.523, 196.389, 221.346, 1)" offset="100%"></stop>
                        </linearGradient>
                    </defs>
                <path fill="url(#sw-gradient)" d="M17.3,-14.8C23.4,-15.5,30,-11,28.5,-6.9C26.9,-2.9,17.2,0.7,13,7.1C8.8,13.4,10.2,22.5,6.9,27.4C3.6,32.3,-4.3,33,-10.6,30.2C-16.8,27.4,-21.4,21.2,-21,15.3C-20.6,9.4,-15.2,3.8,-16,-4.7C-16.7,-13.3,-23.6,-24.8,-22,-24.9C-20.3,-25,-10.2,-13.6,-2.3,-10.9C5.6,-8.2,11.2,-14.1,17.3,-14.8Z" width="100%" height="100%" transform="translate(50 50)" stroke-width="0" style="transition: 0.3s;" stroke="url(#sw-gradient)"></path>
              </svg>