<!--?xml version="1.0" standalone="no"?-->
              <svg id="sw-js-blob-svg" viewBox="0 0 100 100" xmlns="http://www.w3.org/2000/svg" version="1.1">
                    <defs> 
                        <linearGradient id="sw-gradient" x1="0" x2="1" y1="1" y2="0">
                            <stop id="stop1" stop-color="rgba(145.437, 83.242, 213.757, 1)" offset="0%"></stop>
                            <stop id="stop2" stop-color="rgba(211.436, 187.044, 225.141, 1)" offset="100%"></stop>
                        </linearGradient>
                    </defs>
                <path fill="url(#sw-gradient)" d="M18.5,-33.4C22.6,-29.7,23.7,-22,25,-15.8C26.2,-9.5,27.7,-4.8,29.2,0.9C30.7,6.5,32.1,12.9,30.5,18.6C28.9,24.2,24.3,29.1,18.7,33.7C13.1,38.4,6.5,42.8,-0.7,43.9C-7.9,45.1,-15.7,43,-22.6,39.1C-29.4,35.1,-35.1,29.4,-36.9,22.5C-38.7,15.7,-36.5,7.9,-34,1.4C-31.6,-5,-28.9,-10.1,-26.7,-16.2C-24.6,-22.4,-22.9,-29.6,-18.6,-33.2C-14.2,-36.7,-7.1,-36.6,0.1,-36.7C7.2,-36.8,14.4,-37.1,18.5,-33.4Z" width="100%" height="100%" transform="translate(50 50)" stroke-width="0" style="transition: 0.3s;" stroke="url(#sw-gradient)"></path>
              </svg>