<!--?xml version="1.0" standalone="no"?-->
              <svg id="sw-js-blob-svg" viewBox="0 0 100 100" xmlns="http://www.w3.org/2000/svg" version="1.1">
                    <defs> 
                        <linearGradient id="sw-gradient" x1="0" x2="1" y1="1" y2="0">
                            <stop id="stop1" stop-color="rgba(146.848, 99.756, 198.578, 1)" offset="0%"></stop>
                            <stop id="stop2" stop-color="rgba(211.523, 196.389, 221.346, 1)" offset="100%"></stop>
                        </linearGradient>
                    </defs>
                <path fill="url(#sw-gradient)" d="M16.1,-21.8C18.4,-17.4,15.9,-9.9,18.8,-2C21.8,5.9,30.2,14.1,29.8,19.5C29.4,24.8,20.1,27.4,13,25.6C5.8,23.9,0.7,18,-7.8,16.8C-16.2,15.7,-28,19.4,-33.3,16.3C-38.5,13.2,-37.1,3.5,-31.3,-1.3C-25.5,-6.2,-15.2,-6,-9.2,-9.8C-3.3,-13.6,-1.6,-21.3,2.7,-24.4C7,-27.6,13.9,-26.2,16.1,-21.8Z" width="100%" height="100%" transform="translate(50 50)" stroke-width="0" style="transition: 0.3s;"></path>
              </svg>