<!--?xml version="1.0" standalone="no"?-->
              <svg id="sw-js-blob-svg" viewBox="0 0 100 100" xmlns="http://www.w3.org/2000/svg" version="1.1">
                    <defs> 
                        <linearGradient id="sw-gradient" x1="0" x2="1" y1="1" y2="0">
                            <stop id="stop1" stop-color="rgba(146.848, 99.756, 198.578, 1)" offset="0%"></stop>
                            <stop id="stop2" stop-color="rgba(211.523, 196.389, 221.346, 1)" offset="100%"></stop>
                        </linearGradient>
                    </defs>
                <path fill="url(#sw-gradient)" d="M12.6,-19.5C15.3,-12.7,15.9,-7.8,17.5,-2.5C19.2,2.8,21.9,8.5,21.3,14.8C20.7,21.2,16.7,28.1,11.4,29C6.1,29.9,-0.5,24.7,-7.1,21.4C-13.7,18.2,-20.4,16.9,-25.8,12.5C-31.3,8.1,-35.6,0.5,-34,-5.6C-32.4,-11.7,-25,-16.3,-18.4,-22.4C-11.7,-28.5,-5.9,-36,-0.5,-35.4C4.9,-34.8,9.8,-26.2,12.6,-19.5Z" width="100%" height="100%" transform="translate(50 50)" stroke-width="0" style="transition: 0.3s;"></path>
              </svg>